<svg xmlns="http://www.w3.org/2000/svg" viewBox="0 0 1180 610" width="100%" height="100%" style="border-radius: 24px; overflow: hidden; background: #030712;">
  <defs>
    <!-- Background Radial Gradients for premium floating aura -->
    <radialGradient id="glow-left" cx="20%" cy="30%" r="50%">
      <stop offset="0%" stop-color="#7C3AED" stop-opacity="0.15" />
      <stop offset="100%" stop-color="#030712" stop-opacity="0" />
      <animate attributeName="cx" values="20%; 25%; 15%; 20%" dur="20s" repeatCount="indefinite" />
      <animate attributeName="cy" values="30%; 20%; 40%; 30%" dur="25s" repeatCount="indefinite" />
    </radialGradient>
    <radialGradient id="glow-right" cx="80%" cy="70%" r="45%">
      <stop offset="0%" stop-color="#22D3EE" stop-opacity="0.12" />
      <stop offset="100%" stop-color="#030712" stop-opacity="0" />
      <animate attributeName="cx" values="80%; 70%; 85%; 80%" dur="18s" repeatCount="indefinite" />
      <animate attributeName="cy" values="70%; 80%; 60%; 70%" dur="22s" repeatCount="indefinite" />
    </radialGradient>
    <radialGradient id="glow-center" cx="50%" cy="50%" r="35%">
      <stop offset="0%" stop-color="#10B981" stop-opacity="0.08" />
      <stop offset="100%" stop-color="#030712" stop-opacity="0" />
      <animate attributeName="r" values="30%; 40%; 30%" dur="15s" repeatCount="indefinite" />
    </radialGradient>

    <!-- Grid Pattern for cyber terminal look -->
    <pattern id="grid" width="30" height="30" patternUnits="userSpaceOnUse">
      <path d="M 30 0 L 0 0 0 30" fill="none" stroke="rgba(255, 255, 255, 0.03)" stroke-width="1" />
    </pattern>

    <!-- Noise Filter -->
    <filter id="noise-filter" x="0%" y="0%" width="100%" height="100%">
      <feTurbulence type="fractalNoise" baseFrequency="0.65" numOctaves="3" stitchTiles="stitch" result="noise" />
      <feColorMatrix type="matrix" values="1 0 0 0 0  0 1 0 0 0  0 0 1 0 0  0 0 0 0.015 0" />
      <feComposite operator="in" in2="SourceGraphic" />
    </filter>

    <!-- Shimmer Gradients for borders -->
    <linearGradient id="shimmer-grad-left" x1="0%" y1="0%" x2="100%" y2="100%">
      <stop offset="0%" stop-color="rgba(124, 58, 237, 0)" />
      <stop offset="30%" stop-color="rgba(124, 58, 237, 0)" />
      <stop offset="50%" stop-color="rgba(34, 211, 238, 0.4)" />
      <stop offset="70%" stop-color="rgba(16, 185, 129, 0)" />
      <stop offset="100%" stop-color="rgba(16, 185, 129, 0)" />
      <animateTransform attributeName="gradientTransform" type="translate" values="-2 -2; 2 2" dur="8s" repeatCount="indefinite" />
    </linearGradient>
    
    <linearGradient id="shimmer-grad-right" x1="0%" y1="0%" x2="100%" y2="100%">
      <stop offset="0%" stop-color="rgba(124, 58, 237, 0)" />
      <stop offset="30%" stop-color="rgba(124, 58, 237, 0)" />
      <stop offset="50%" stop-color="rgba(34, 211, 238, 0.4)" />
      <stop offset="70%" stop-color="rgba(16, 185, 129, 0)" />
      <stop offset="100%" stop-color="rgba(16, 185, 129, 0)" />
      <animateTransform attributeName="gradientTransform" type="translate" values="-2 -2; 2 2" dur="6s" repeatCount="indefinite" />
    </linearGradient>

    <!-- Text Accent Gradient -->
    <linearGradient id="accent-grad" x1="0%" y1="0%" x2="100%" y2="0%">
      <stop offset="0%" stop-color="#7C3AED" />
      <stop offset="50%" stop-color="#22D3EE" />
      <stop offset="100%" stop-color="#10B981" />
    </linearGradient>

    <!-- ASCII Portrait Gradient -->
    <linearGradient id="ascii-grad" x1="0%" y1="0%" x2="0%" y2="100%">
      <stop offset="0%" stop-color="#22D3EE" />
      <stop offset="100%" stop-color="#7C3AED" />
    </linearGradient>

    <!-- Drop Shadows for glass panels -->
    <filter id="shadow-filter" x="-10%" y="-10%" width="120%" height="120%">
      <feDropShadow dx="0" dy="12" stdDeviation="16" flood-color="#000000" flood-opacity="0.25" />
    </filter>

    <!-- Glow filters for interactive states -->
    <filter id="glow-active" x="-20%" y="-20%" width="140%" height="140%">
      <feGaussianBlur stdDeviation="6" result="blur" />
      <feComposite in="SourceGraphic" in2="blur" operator="over" />
    </filter>
  </defs>

  <style>
    <![CDATA[
    /* Font Declarations */
    .terminal-title, .terminal-body, .ascii-text {
      font-family: ui-monospace, SFMono-Regular, SF Mono, Menlo, Monaco, Consolas, "Liberation Mono", "Courier New", monospace;
    }
    .sans-text, .typing-text, .name-text, .greeting-text {
      font-family: system-ui, -apple-system, BlinkMacSystemFont, "Segoe UI", Roboto, "Helvetica Neue", Arial, sans-serif;
    }

    /* Global Typography and Styles */
    .greeting-text {
      font-size: 20px;
      font-weight: 500;
      fill: #94A3B8;
    }
    .name-text {
      font-size: 34px;
      font-weight: 800;
      fill: #F8FAFC;
    }
    .typing-text {
      font-size: 22px;
      font-weight: 700;
      fill: url(#accent-grad);
    }
    .metadata-label {
      font-size: 13px;
      font-weight: 600;
      fill: #94A3B8;
    }
    .metadata-value {
      font-size: 13px;
      font-weight: 500;
      fill: #F8FAFC;
    }
    .skill-text {
      font-size: 11px;
      font-weight: 600;
      fill: #F8FAFC;
    }
    .ascii-text {
      font-size: 10px;
      font-weight: bold;
      fill: url(#ascii-grad);
      white-space: pre;
    }
    .ascii-cursor {
      fill: #22D3EE;
    }
    .terminal-cursor {
      fill: url(#accent-grad);
    }
    
    /* Interactive Skills Pills and Hover Effects */
    .skill-pill {
      transition: all 0.25s cubic-bezier(0.16, 1, 0.3, 1);
      transform-box: fill-box;
      transform-origin: center;
      cursor: pointer;
    }
    .skill-pill:hover {
      transform: scale(1.08);
      filter: drop-shadow(0 0 8px rgba(34, 211, 238, 0.2));
    }
    .skill-pill-rect {
      fill: #0F172A;
      stroke: rgba(255, 255, 255, 0.08);
      stroke-width: 1px;
      transition: stroke 0.3s;
    }
    .skill-pill:hover .skill-pill-rect {
      stroke: url(#accent-grad);
      stroke-width: 1.5px;
    }

    /* Social Icons Hover and Animation */
    .social-icon {
      transition: all 0.3s cubic-bezier(0.16, 1, 0.3, 1);
      transform-box: fill-box;
      transform-origin: center;
      cursor: pointer;
      opacity: 0.6;
    }
    .social-icon:hover {
      transform: translateY(-3px) scale(1.15);
      opacity: 1;
      filter: drop-shadow(0 4px 8px rgba(34, 211, 238, 0.2));
    }
    .social-icon-path {
      fill: #F8FAFC;
    }

    /* Scanline Sweeper Animation */
    .scanline {
      opacity: 0.05;
      fill: url(#accent-grad);
    }
    ]]>
  </style>

  <!-- BACKGROUND SYSTEM -->
  <rect width="1180" height="610" fill="#030712" />
  <rect width="1180" height="610" fill="url(#glow-left)" />
  <rect width="1180" height="610" fill="url(#glow-right)" />
  <rect width="1180" height="610" fill="url(#glow-center)" />
  <rect width="1180" height="610" fill="url(#grid)" />
  <rect width="1180" height="610" filter="url(#noise-filter)" />

  <!-- DYNAMIC FLOATING PARTICLES -->
  <g opacity="0.4">
    <!-- Particle 1 -->
    <circle cx="200" cy="150" r="2.5" fill="#22D3EE">
      <animate attributeName="cy" values="150;130;170;150" dur="8s" repeatCount="indefinite" />
      <animate attributeName="cx" values="200;220;180;200" dur="9s" repeatCount="indefinite" />
      <animate attributeName="opacity" values="0.2;0.8;0.2" dur="8s" repeatCount="indefinite" />
    </circle>
    <!-- Particle 2 -->
    <circle cx="950" cy="120" r="2" fill="#22D3EE">
      <animate attributeName="cy" values="120;140;100;120" dur="11s" repeatCount="indefinite" />
      <animate attributeName="cx" values="950;930;970;950" dur="10s" repeatCount="indefinite" />
      <animate attributeName="opacity" values="0.8;0.3;0.8" dur="11s" repeatCount="indefinite" />
    </circle>
    <!-- Particle 3 -->
    <circle cx="500" cy="480" r="3" fill="#22D3EE">
      <animate attributeName="cy" values="480;460;500;480" dur="7s" repeatCount="indefinite" />
      <animate attributeName="cx" values="500;520;480;500" dur="8s" repeatCount="indefinite" />
      <animate attributeName="opacity" values="0.1;0.7;0.1" dur="7s" repeatCount="indefinite" />
    </circle>
  </g>

  <!-- LEFT SIDE PANEL (ASCII Cyber Portrait) -->
  <g>
    <animateTransform attributeName="transform" type="translate" values="0 0; 0 -8; 0 0" dur="7s" repeatCount="indefinite" additive="sum" />
    
    <!-- Glassmorphic panel background -->
    <rect x="40" y="40" width="410" height="530" rx="20" fill="#0F172A" fill-opacity="0.6" filter="url(#shadow-filter)" />
    
    <!-- Shimmer border -->
    <rect x="40" y="40" width="410" height="530" rx="20" fill="none" stroke="url(#shimmer-grad-left)" stroke-width="1.5" />
    <rect x="40" y="40" width="410" height="530" rx="20" fill="none" stroke="rgba(255, 255, 255, 0.08)" stroke-width="1" />

    <!-- Terminal Header on Left Panel -->
    <circle cx="65" cy="65" r="5" fill="#EF4444" opacity="0.8" />
    <circle cx="80" cy="65" r="5" fill="#F59E0B" opacity="0.8" />
    <circle cx="95" cy="65" r="5" fill="#10B981" opacity="0.8" />
    <text x="120" y="70" class="terminal-title" font-size="12" fill="#94A3B8">AVATAR.EXE</text>
    <line x1="40" y1="85" x2="450" y2="85" stroke="rgba(255, 255, 255, 0.08)" stroke-width="1" />

    <!-- Scanline Sweep Effect -->
    <rect class="scanline" x="42" y="86" width="406" height="3">
      <animate attributeName="y" values="86; 550; 86" dur="4s" repeatCount="indefinite" />
    </rect>

    <!-- Glass Reflection Highlight -->
    <path d="M 40 180 Q 240 120 450 180" fill="none" stroke="rgba(255,255,255,0.04)" stroke-width="2" />

    <!-- Render ASCII Lines -->
    
    <!-- Line 0 -->
    <clipPath id="ascii-clip-0">
      <rect x="40" y="136" height="22" width="0">
        <animate attributeName="width" from="0" to="330" dur="0.06s" begin="0.2s" fill="freeze" />
      </rect>
    </clipPath>
    <text x="65" y="150" class="ascii-text" clip-path="url(#ascii-clip-0)">        .---------------------------.        </text>
    <rect class="ascii-cursor" x="65" y="137" width="6" height="15">
      <animate attributeName="x" from="65" to="395" dur="0.06s" begin="0.2s" fill="freeze" />
      <animate attributeName="opacity" values="1;1;0" keyTimes="0;0.99;1" dur="0.06s" begin="0.2s" fill="freeze" />
    </rect>

    <!-- Line 1 -->
    <clipPath id="ascii-clip-1">
      <rect x="40" y="154" height="22" width="0">
        <animate attributeName="width" from="0" to="330" dur="0.06s" begin="0.24s" fill="freeze" />
      </rect>
    </clipPath>
    <text x="65" y="168" class="ascii-text" clip-path="url(#ascii-clip-1)">       //                           \\       </text>
    <rect class="ascii-cursor" x="65" y="155" width="6" height="15">
      <animate attributeName="x" from="65" to="395" dur="0.06s" begin="0.24s" fill="freeze" />
      <animate attributeName="opacity" values="1;1;0" keyTimes="0;0.99;1" dur="0.06s" begin="0.24s" fill="freeze" />
    </rect>

    <!-- Line 2 -->
    <clipPath id="ascii-clip-2">
      <rect x="40" y="172" height="22" width="0">
        <animate attributeName="width" from="0" to="330" dur="0.06s" begin="0.28s" fill="freeze" />
      </rect>
    </clipPath>
    <text x="65" y="186" class="ascii-text" clip-path="url(#ascii-clip-2)">      //     .-----------------.     \\      </text>
    <rect class="ascii-cursor" x="65" y="173" width="6" height="15">
      <animate attributeName="x" from="65" to="395" dur="0.06s" begin="0.28s" fill="freeze" />
      <animate attributeName="opacity" values="1;1;0" keyTimes="0;0.99;1" dur="0.06s" begin="0.28s" fill="freeze" />
    </rect>

    <!-- Line 3 -->
    <clipPath id="ascii-clip-3">
      <rect x="40" y="190" height="22" width="0">
        <animate attributeName="width" from="0" to="330" dur="0.06s" begin="0.32s" fill="freeze" />
      </rect>
    </clipPath>
    <text x="65" y="204" class="ascii-text" clip-path="url(#ascii-clip-3)">     //     /                   \     \\     </text>
    <rect class="ascii-cursor" x="65" y="191" width="6" height="15">
      <animate attributeName="x" from="65" to="395" dur="0.06s" begin="0.32s" fill="freeze" />
      <animate attributeName="opacity" values="1;1;0" keyTimes="0;0.99;1" dur="0.06s" begin="0.32s" fill="freeze" />
    </rect>

    <!-- Line 4 -->
    <clipPath id="ascii-clip-4">
      <rect x="40" y="208" height="22" width="0">
        <animate attributeName="width" from="0" to="330" dur="0.06s" begin="0.36s" fill="freeze" />
      </rect>
    </clipPath>
    <text x="65" y="222" class="ascii-text" clip-path="url(#ascii-clip-4)">    //     /   █████     █████   \     \\    </text>
    <rect class="ascii-cursor" x="65" y="209" width="6" height="15">
      <animate attributeName="x" from="65" to="395" dur="0.06s" begin="0.36s" fill="freeze" />
      <animate attributeName="opacity" values="1;1;0" keyTimes="0;0.99;1" dur="0.06s" begin="0.36s" fill="freeze" />
    </rect>

    <!-- Line 5 -->
    <clipPath id="ascii-clip-5">
      <rect x="40" y="226" height="22" width="0">
        <animate attributeName="width" from="0" to="330" dur="0.06s" begin="0.4s" fill="freeze" />
      </rect>
    </clipPath>
    <text x="65" y="240" class="ascii-text" clip-path="url(#ascii-clip-5)">   //     |    █████     █████    |     \\   </text>
    <rect class="ascii-cursor" x="65" y="227" width="6" height="15">
      <animate attributeName="x" from="65" to="395" dur="0.06s" begin="0.4s" fill="freeze" />
      <animate attributeName="opacity" values="1;1;0" keyTimes="0;0.99;1" dur="0.06s" begin="0.4s" fill="freeze" />
    </rect>

    <!-- Line 6 -->
    <clipPath id="ascii-clip-6">
      <rect x="40" y="244" height="22" width="0">
        <animate attributeName="width" from="0" to="330" dur="0.06s" begin="0.44s" fill="freeze" />
      </rect>
    </clipPath>
    <text x="65" y="258" class="ascii-text" clip-path="url(#ascii-clip-6)">  ||      |      _         _      |      ||  </text>
    <rect class="ascii-cursor" x="65" y="245" width="6" height="15">
      <animate attributeName="x" from="65" to="395" dur="0.06s" begin="0.44s" fill="freeze" />
      <animate attributeName="opacity" values="1;1;0" keyTimes="0;0.99;1" dur="0.06s" begin="0.44s" fill="freeze" />
    </rect>

    <!-- Line 7 -->
    <clipPath id="ascii-clip-7">
      <rect x="40" y="262" height="22" width="0">
        <animate attributeName="width" from="0" to="330" dur="0.06s" begin="0.48s" fill="freeze" />
      </rect>
    </clipPath>
    <text x="65" y="276" class="ascii-text" clip-path="url(#ascii-clip-7)">  ||      |     (o)       (o)     |      ||  </text>
    <rect class="ascii-cursor" x="65" y="263" width="6" height="15">
      <animate attributeName="x" from="65" to="395" dur="0.06s" begin="0.48s" fill="freeze" />
      <animate attributeName="opacity" values="1;1;0" keyTimes="0;0.99;1" dur="0.06s" begin="0.48s" fill="freeze" />
    </rect>

    <!-- Line 8 -->
    <clipPath id="ascii-clip-8">
      <rect x="40" y="280" height="22" width="0">
        <animate attributeName="width" from="0" to="330" dur="0.06s" begin="0.52s" fill="freeze" />
      </rect>
    </clipPath>
    <text x="65" y="294" class="ascii-text" clip-path="url(#ascii-clip-8)">  ||      |      -         -      |      ||  </text>
    <rect class="ascii-cursor" x="65" y="281" width="6" height="15">
      <animate attributeName="x" from="65" to="395" dur="0.06s" begin="0.52s" fill="freeze" />
      <animate attributeName="opacity" values="1;1;0" keyTimes="0;0.99;1" dur="0.06s" begin="0.52s" fill="freeze" />
    </rect>

    <!-- Line 9 -->
    <clipPath id="ascii-clip-9">
      <rect x="40" y="298" height="22" width="0">
        <animate attributeName="width" from="0" to="330" dur="0.06s" begin="0.56s" fill="freeze" />
      </rect>
    </clipPath>
    <text x="65" y="312" class="ascii-text" clip-path="url(#ascii-clip-9)">  ||      |           ▲           |      ||  </text>
    <rect class="ascii-cursor" x="65" y="299" width="6" height="15">
      <animate attributeName="x" from="65" to="395" dur="0.06s" begin="0.56s" fill="freeze" />
      <animate attributeName="opacity" values="1;1;0" keyTimes="0;0.99;1" dur="0.06s" begin="0.56s" fill="freeze" />
    </rect>

    <!-- Line 10 -->
    <clipPath id="ascii-clip-10">
      <rect x="40" y="316" height="22" width="0">
        <animate attributeName="width" from="0" to="330" dur="0.06s" begin="0.6s" fill="freeze" />
      </rect>
    </clipPath>
    <text x="65" y="330" class="ascii-text" clip-path="url(#ascii-clip-10)">  ||      |       \_______/       |      ||  </text>
    <rect class="ascii-cursor" x="65" y="317" width="6" height="15">
      <animate attributeName="x" from="65" to="395" dur="0.06s" begin="0.6s" fill="freeze" />
      <animate attributeName="opacity" values="1;1;0" keyTimes="0;0.99;1" dur="0.06s" begin="0.6s" fill="freeze" />
    </rect>

    <!-- Line 11 -->
    <clipPath id="ascii-clip-11">
      <rect x="40" y="334" height="22" width="0">
        <animate attributeName="width" from="0" to="330" dur="0.06s" begin="0.64s" fill="freeze" />
      </rect>
    </clipPath>
    <text x="65" y="348" class="ascii-text" clip-path="url(#ascii-clip-11)">  ||       \       \_____/       /       ||  </text>
    <rect class="ascii-cursor" x="65" y="335" width="6" height="15">
      <animate attributeName="x" from="65" to="395" dur="0.06s" begin="0.64s" fill="freeze" />
      <animate attributeName="opacity" values="1;1;0" keyTimes="0;0.99;1" dur="0.06s" begin="0.64s" fill="freeze" />
    </rect>

    <!-- Line 12 -->
    <clipPath id="ascii-clip-12">
      <rect x="40" y="352" height="22" width="0">
        <animate attributeName="width" from="0" to="330" dur="0.06s" begin="0.68s" fill="freeze" />
      </rect>
    </clipPath>
    <text x="65" y="366" class="ascii-text" clip-path="url(#ascii-clip-12)">   \\       \                   /       //   </text>
    <rect class="ascii-cursor" x="65" y="353" width="6" height="15">
      <animate attributeName="x" from="65" to="395" dur="0.06s" begin="0.68s" fill="freeze" />
      <animate attributeName="opacity" values="1;1;0" keyTimes="0;0.99;1" dur="0.06s" begin="0.68s" fill="freeze" />
    </rect>

    <!-- Line 13 -->
    <clipPath id="ascii-clip-13">
      <rect x="40" y="370" height="22" width="0">
        <animate attributeName="width" from="0" to="330" dur="0.06s" begin="0.72s" fill="freeze" />
      </rect>
    </clipPath>
    <text x="65" y="384" class="ascii-text" clip-path="url(#ascii-clip-13)">    \\       \_________________/       //    </text>
    <rect class="ascii-cursor" x="65" y="371" width="6" height="15">
      <animate attributeName="x" from="65" to="395" dur="0.06s" begin="0.72s" fill="freeze" />
      <animate attributeName="opacity" values="1;1;0" keyTimes="0;0.99;1" dur="0.06s" begin="0.72s" fill="freeze" />
    </rect>

    <!-- Line 14 -->
    <clipPath id="ascii-clip-14">
      <rect x="40" y="388" height="22" width="0">
        <animate attributeName="width" from="0" to="330" dur="0.06s" begin="0.76s" fill="freeze" />
      </rect>
    </clipPath>
    <text x="65" y="402" class="ascii-text" clip-path="url(#ascii-clip-14)">     \\                               //     </text>
    <rect class="ascii-cursor" x="65" y="389" width="6" height="15">
      <animate attributeName="x" from="65" to="395" dur="0.06s" begin="0.76s" fill="freeze" />
      <animate attributeName="opacity" values="1;1;0" keyTimes="0;0.99;1" dur="0.06s" begin="0.76s" fill="freeze" />
    </rect>

    <!-- Line 15 -->
    <clipPath id="ascii-clip-15">
      <rect x="40" y="406" height="22" width="0">
        <animate attributeName="width" from="0" to="330" dur="0.06s" begin="0.8s" fill="freeze" />
      </rect>
    </clipPath>
    <text x="65" y="420" class="ascii-text" clip-path="url(#ascii-clip-15)">      \\=============================//      </text>
    <rect class="ascii-cursor" x="65" y="407" width="6" height="15">
      <animate attributeName="x" from="65" to="395" dur="0.06s" begin="0.8s" fill="freeze" />
      <animate attributeName="opacity" values="1;1;0" keyTimes="0;0.99;1" dur="0.06s" begin="0.8s" fill="freeze" />
    </rect>

    <!-- Line 16 -->
    <clipPath id="ascii-clip-16">
      <rect x="40" y="424" height="22" width="0">
        <animate attributeName="width" from="0" to="330" dur="0.06s" begin="0.84s" fill="freeze" />
      </rect>
    </clipPath>
    <text x="65" y="438" class="ascii-text" clip-path="url(#ascii-clip-16)">       ||                           ||       </text>
    <rect class="ascii-cursor" x="65" y="425" width="6" height="15">
      <animate attributeName="x" from="65" to="395" dur="0.06s" begin="0.84s" fill="freeze" />
      <animate attributeName="opacity" values="1;1;0" keyTimes="0;0.99;1" dur="0.06s" begin="0.84s" fill="freeze" />
    </rect>

    <!-- Line 17 -->
    <clipPath id="ascii-clip-17">
      <rect x="40" y="442" height="22" width="0">
        <animate attributeName="width" from="0" to="330" dur="0.06s" begin="0.88s" fill="freeze" />
      </rect>
    </clipPath>
    <text x="65" y="456" class="ascii-text" clip-path="url(#ascii-clip-17)">      .----.                     .----.      </text>
    <rect class="ascii-cursor" x="65" y="443" width="6" height="15">
      <animate attributeName="x" from="65" to="395" dur="0.06s" begin="0.88s" fill="freeze" />
      <animate attributeName="opacity" values="1;1;0" keyTimes="0;0.99;1" dur="0.06s" begin="0.88s" fill="freeze" />
    </rect>

    <!-- Line 18 -->
    <clipPath id="ascii-clip-18">
      <rect x="40" y="460" height="22" width="0">
        <animate attributeName="width" from="0" to="330" dur="0.06s" begin="0.92s" fill="freeze" />
      </rect>
    </clipPath>
    <text x="65" y="474" class="ascii-text" clip-path="url(#ascii-clip-18)">     /      \                   /      \     </text>
    <rect class="ascii-cursor" x="65" y="461" width="6" height="15">
      <animate attributeName="x" from="65" to="395" dur="0.06s" begin="0.92s" fill="freeze" />
      <animate attributeName="opacity" values="1;1;0" keyTimes="0;0.99;1" dur="0.06s" begin="0.92s" fill="freeze" />
    </rect>

    <!-- Line 19 -->
    <clipPath id="ascii-clip-19">
      <rect x="40" y="478" height="22" width="0">
        <animate attributeName="width" from="0" to="330" dur="0.06s" begin="0.96s" fill="freeze" />
      </rect>
    </clipPath>
    <text x="65" y="492" class="ascii-text" clip-path="url(#ascii-clip-19)">    |   ██   |                 |   ██   |    </text>
    <rect class="ascii-cursor" x="65" y="479" width="6" height="15">
      <animate attributeName="x" from="65" to="395" dur="0.06s" begin="0.96s" fill="freeze" />
      <animate attributeName="opacity" values="1;1;0" keyTimes="0;0.99;1" dur="0.06s" begin="0.96s" fill="freeze" />
    </rect>

    <!-- Line 20 -->
    <clipPath id="ascii-clip-20">
      <rect x="40" y="496" height="22" width="0">
        <animate attributeName="width" from="0" to="330" dur="0.06s" begin="1.0s" fill="freeze" />
      </rect>
    </clipPath>
    <text x="65" y="510" class="ascii-text" clip-path="url(#ascii-clip-20)">     \______/                   \______/     </text>
    <rect class="ascii-cursor" x="65" y="497" width="6" height="15">
      <animate attributeName="x" from="65" to="395" dur="0.06s" begin="1.0s" fill="freeze" />
      <animate attributeName="opacity" values="1;1;0" keyTimes="0;0.99;1" dur="0.06s" begin="1.0s" fill="freeze" />
    </rect>

  </g>

  <!-- RIGHT SIDE PANEL (Terminal Console) -->
  <g>
    <!-- Glassmorphic panel background -->
    <rect x="480" y="40" width="660" height="530" rx="20" fill="#0F172A" fill-opacity="0.6" filter="url(#shadow-filter)" />
    
    <!-- Shimmer border -->
    <rect x="480" y="40" width="660" height="530" rx="20" fill="none" stroke="url(#shimmer-grad-right)" stroke-width="1.5" />
    <rect x="480" y="40" width="660" height="530" rx="20" fill="none" stroke="rgba(255, 255, 255, 0.08)" stroke-width="1" />

    <!-- Terminal Header -->
    <circle cx="505" cy="65" r="5" fill="#EF4444" opacity="0.8" />
    <circle cx="520" cy="65" r="5" fill="#F59E0B" opacity="0.8" />
    <circle cx="535" cy="65" r="5" fill="#10B981" opacity="0.8" />
    <text x="560" y="70" class="terminal-title" font-size="12" fill="#94A3B8">zsh - ankit@kumar:~</text>
    <line x1="480" y1="85" x2="1140" y2="85" stroke="rgba(255, 255, 255, 0.08)" stroke-width="1" />

    <!-- Greeting Section -->
    <g opacity="0">
      <animate attributeName="opacity" from="0" to="1" dur="0.6s" begin="0.1s" fill="freeze" />
      <text x="520" y="125" class="greeting-text">Hi 👋</text>
      <text x="520" y="165" class="name-text">I'm Ankit Kumar</text>
    </g>

    <!-- Typing Text Phrases -->
    
    <!-- Phrase 0: "Full-Stack Developer" -->
    <clipPath id="phrase-clip-0">
      <rect x="520" y="198" height="36" width="0">
        <animate attributeName="width" values="0; 0; 320; 320; 0; 0; 0" keyTimes="0; 0.0083; 0.0500; 0.1250; 0.1500; 0.1667; 1" dur="24.0s" repeatCount="indefinite" />
      </rect>
    </clipPath>
    <text x="520" y="226" class="typing-text" clip-path="url(#phrase-clip-0)">Full-Stack Developer</text>
    
    <rect class="terminal-cursor" x="520" y="199" width="10" height="28">
      <animate attributeName="x" values="520; 520; 850; 850; 520; 520; 520" keyTimes="0; 0.0083; 0.0500; 0.1250; 0.1500; 0.1667; 1" dur="24.0s" repeatCount="indefinite" />
      <animate attributeName="opacity" values="0; 0; 1; 0; 1; 0; 1; 0; 1; 0; 0" 
               keyTimes="0; 0.0083; 0.0500; 0.0700; 0.0900; 0.1100; 0.1300; 0.1250; 0.1500; 0.1667; 1" 
               dur="24.0s" repeatCount="indefinite" />
    </rect>

    <!-- Phrase 1: "MERN Stack Developer" -->
    <clipPath id="phrase-clip-1">
      <rect x="520" y="198" height="36" width="0">
        <animate attributeName="width" values="0; 0; 320; 320; 0; 0; 0" keyTimes="0; 0.1750; 0.2167; 0.2917; 0.3167; 0.3333; 1" dur="24.0s" repeatCount="indefinite" />
      </rect>
    </clipPath>
    <text x="520" y="226" class="typing-text" clip-path="url(#phrase-clip-1)">MERN Stack Developer</text>
    
    <rect class="terminal-cursor" x="520" y="199" width="10" height="28">
      <animate attributeName="x" values="520; 520; 850; 850; 520; 520; 520" keyTimes="0; 0.1750; 0.2167; 0.2917; 0.3167; 0.3333; 1" dur="24.0s" repeatCount="indefinite" />
      <animate attributeName="opacity" values="0; 0; 1; 0; 1; 0; 1; 0; 1; 0; 0" 
               keyTimes="0; 0.1750; 0.2167; 0.2367; 0.2567; 0.2767; 0.2967; 0.2917; 0.3167; 0.3333; 1" 
               dur="24.0s" repeatCount="indefinite" />
    </rect>

    <!-- Phrase 2: "Software Engineer" -->
    <clipPath id="phrase-clip-2">
      <rect x="520" y="198" height="36" width="0">
        <animate attributeName="width" values="0; 0; 320; 320; 0; 0; 0" keyTimes="0; 0.3417; 0.3833; 0.4583; 0.4833; 0.5000; 1" dur="24.0s" repeatCount="indefinite" />
      </rect>
    </clipPath>
    <text x="520" y="226" class="typing-text" clip-path="url(#phrase-clip-2)">Software Engineer</text>
    
    <rect class="terminal-cursor" x="520" y="199" width="10" height="28">
      <animate attributeName="x" values="520; 520; 850; 850; 520; 520; 520" keyTimes="0; 0.3417; 0.3833; 0.4583; 0.4833; 0.5000; 1" dur="24.0s" repeatCount="indefinite" />
      <animate attributeName="opacity" values="0; 0; 1; 0; 1; 0; 1; 0; 1; 0; 0" 
               keyTimes="0; 0.3417; 0.3833; 0.4033; 0.4233; 0.4433; 0.4633; 0.4583; 0.4833; 0.5000; 1" 
               dur="24.0s" repeatCount="indefinite" />
    </rect>

    <!-- Phrase 3: "AI Enthusiast" -->
    <clipPath id="phrase-clip-3">
      <rect x="520" y="198" height="36" width="0">
        <animate attributeName="width" values="0; 0; 320; 320; 0; 0; 0" keyTimes="0; 0.5083; 0.5500; 0.6250; 0.6500; 0.6667; 1" dur="24.0s" repeatCount="indefinite" />
      </rect>
    </clipPath>
    <text x="520" y="226" class="typing-text" clip-path="url(#phrase-clip-3)">AI Enthusiast</text>
    
    <rect class="terminal-cursor" x="520" y="199" width="10" height="28">
      <animate attributeName="x" values="520; 520; 850; 850; 520; 520; 520" keyTimes="0; 0.5083; 0.5500; 0.6250; 0.6500; 0.6667; 1" dur="24.0s" repeatCount="indefinite" />
      <animate attributeName="opacity" values="0; 0; 1; 0; 1; 0; 1; 0; 1; 0; 0" 
               keyTimes="0; 0.5083; 0.5500; 0.5700; 0.5900; 0.6100; 0.6300; 0.6250; 0.6500; 0.6667; 1" 
               dur="24.0s" repeatCount="indefinite" />
    </rect>

    <!-- Phrase 4: "Problem Solver" -->
    <clipPath id="phrase-clip-4">
      <rect x="520" y="198" height="36" width="0">
        <animate attributeName="width" values="0; 0; 320; 320; 0; 0; 0" keyTimes="0; 0.6750; 0.7167; 0.7917; 0.8167; 0.8333; 1" dur="24.0s" repeatCount="indefinite" />
      </rect>
    </clipPath>
    <text x="520" y="226" class="typing-text" clip-path="url(#phrase-clip-4)">Problem Solver</text>
    
    <rect class="terminal-cursor" x="520" y="199" width="10" height="28">
      <animate attributeName="x" values="520; 520; 850; 850; 520; 520; 520" keyTimes="0; 0.6750; 0.7167; 0.7917; 0.8167; 0.8333; 1" dur="24.0s" repeatCount="indefinite" />
      <animate attributeName="opacity" values="0; 0; 1; 0; 1; 0; 1; 0; 1; 0; 0" 
               keyTimes="0; 0.6750; 0.7167; 0.7367; 0.7567; 0.7767; 0.7967; 0.7917; 0.8167; 0.8333; 1" 
               dur="24.0s" repeatCount="indefinite" />
    </rect>

    <!-- Phrase 5: "Freelance Video Editor" -->
    <clipPath id="phrase-clip-5">
      <rect x="520" y="198" height="36" width="0">
        <animate attributeName="width" values="0; 0; 320; 320; 0; 0; 0" keyTimes="0; 0.8417; 0.8833; 0.9583; 0.9833; 1.0000; 1" dur="24.0s" repeatCount="indefinite" />
      </rect>
    </clipPath>
    <text x="520" y="226" class="typing-text" clip-path="url(#phrase-clip-5)">Freelance Video Editor</text>
    
    <rect class="terminal-cursor" x="520" y="199" width="10" height="28">
      <animate attributeName="x" values="520; 520; 850; 850; 520; 520; 520" keyTimes="0; 0.8417; 0.8833; 0.9583; 0.9833; 1.0000; 1" dur="24.0s" repeatCount="indefinite" />
      <animate attributeName="opacity" values="0; 0; 1; 0; 1; 0; 1; 0; 1; 0; 0" 
               keyTimes="0; 0.8417; 0.8833; 0.9033; 0.9233; 0.9433; 0.9633; 0.9583; 0.9833; 1.0000; 1" 
               dur="24.0s" repeatCount="indefinite" />
    </rect>


    <!-- METADATA/INFO LIST -->
    <g>
      <!-- Item 1: Location -->
      <g opacity="0">
        <animate attributeName="opacity" from="0" to="1" dur="0.5s" begin="1.6s" fill="freeze" />
        <text x="520" y="258" font-size="13">📍</text>
        <text x="545" y="258" class="metadata-label">Location:</text>
        <text x="635" y="258" class="metadata-value">Punjab, India</text>
      </g>

      <!-- Item 2: Education -->
      <g opacity="0">
        <animate attributeName="opacity" from="0" to="1" dur="0.5s" begin="1.8s" fill="freeze" />
        <text x="520" y="284" font-size="13">🎓</text>
        <text x="545" y="284" class="metadata-label">Education:</text>
        <text x="635" y="284" class="metadata-value">B.Tech in Computer Science &amp; Engineering (2023–2027)</text>
      </g>

      <!-- Item 3: Focus -->
      <g opacity="0">
        <animate attributeName="opacity" from="0" to="1" dur="0.5s" begin="2.0s" fill="freeze" />
        <text x="520" y="310" font-size="13">💻</text>
        <text x="545" y="310" class="metadata-label">Focus:</text>
        <text x="635" y="310" class="metadata-value">Full-Stack Development, AI Applications, System Design &amp; DSA</text>
      </g>

      <!-- Item 4: Portfolio -->
      <g opacity="0">
        <animate attributeName="opacity" from="0" to="1" dur="0.5s" begin="2.2s" fill="freeze" />
        <text x="520" y="336" font-size="13">🌐</text>
        <text x="545" y="336" class="metadata-label">Portfolio:</text>
        <a href="https://ankit-kohl.vercel.app/" target="_blank" style="text-decoration: none;">
          <text x="635" y="336" class="metadata-value" fill="url(#accent-grad)">ankit-kohl.vercel.app</text>
        </a>
      </g>

      <!-- Item 5: Email -->
      <g opacity="0">
        <animate attributeName="opacity" from="0" to="1" dur="0.5s" begin="2.4s" fill="freeze" />
        <text x="520" y="362" font-size="13">📧</text>
        <text x="545" y="362" class="metadata-label">Email:</text>
        <a href="mailto:ankit.devf@gmail.com" style="text-decoration: none;">
          <text x="635" y="362" class="metadata-value" fill="url(#accent-grad)">ankit.devf@gmail.com</text>
        </a>
      </g>
    </g>

    <!-- SKILLS SECTION -->
    <g>
      <g opacity="0">
        <animate attributeName="opacity" from="0" to="1" dur="0.5s" begin="2.6s" fill="freeze" />
        <text x="520" y="386" class="metadata-label">TECH_STACK // </text>
      </g>
      
      <g class="skill-pill" opacity="0" transform="translate(520, 398)">
        <animate attributeName="opacity" from="0" to="1" dur="0.3s" begin="2.6s" fill="freeze" />
        <rect class="skill-pill-rect" x="0" y="0" width="76" height="24" rx="12" />
        <text class="skill-text" x="38" y="16" text-anchor="middle">React.js</text>
      </g>
      <g class="skill-pill" opacity="0" transform="translate(604, 398)">
        <animate attributeName="opacity" from="0" to="1" dur="0.3s" begin="2.65s" fill="freeze" />
        <rect class="skill-pill-rect" x="0" y="0" width="90" height="24" rx="12" />
        <text class="skill-text" x="45" y="16" text-anchor="middle">TypeScript</text>
      </g>
      <g class="skill-pill" opacity="0" transform="translate(702, 398)">
        <animate attributeName="opacity" from="0" to="1" dur="0.3s" begin="2.7s" fill="freeze" />
        <rect class="skill-pill-rect" x="0" y="0" width="90" height="24" rx="12" />
        <text class="skill-text" x="45" y="16" text-anchor="middle">JavaScript</text>
      </g>
      <g class="skill-pill" opacity="0" transform="translate(800, 398)">
        <animate attributeName="opacity" from="0" to="1" dur="0.3s" begin="2.75s" fill="freeze" />
        <rect class="skill-pill-rect" x="0" y="0" width="69" height="24" rx="12" />
        <text class="skill-text" x="34" y="16" text-anchor="middle">Node.js</text>
      </g>
      <g class="skill-pill" opacity="0" transform="translate(877, 398)">
        <animate attributeName="opacity" from="0" to="1" dur="0.3s" begin="2.8s" fill="freeze" />
        <rect class="skill-pill-rect" x="0" y="0" width="90" height="24" rx="12" />
        <text class="skill-text" x="45" y="16" text-anchor="middle">Express.js</text>
      </g>
      <g class="skill-pill" opacity="0" transform="translate(975, 398)">
        <animate attributeName="opacity" from="0" to="1" dur="0.3s" begin="2.85s" fill="freeze" />
        <rect class="skill-pill-rect" x="0" y="0" width="69" height="24" rx="12" />
        <text class="skill-text" x="34" y="16" text-anchor="middle">MongoDB</text>
      </g>
      <g class="skill-pill" opacity="0" transform="translate(520, 430)">
        <animate attributeName="opacity" from="0" to="1" dur="0.3s" begin="2.9s" fill="freeze" />
        <rect class="skill-pill-rect" x="0" y="0" width="56" height="24" rx="12" />
        <text class="skill-text" x="28" y="16" text-anchor="middle">MySQL</text>
      </g>
      <g class="skill-pill" opacity="0" transform="translate(584, 430)">
        <animate attributeName="opacity" from="0" to="1" dur="0.3s" begin="2.95s" fill="freeze" />
        <rect class="skill-pill-rect" x="0" y="0" width="42" height="24" rx="12" />
        <text class="skill-text" x="21" y="16" text-anchor="middle">PHP</text>
      </g>
      <g class="skill-pill" opacity="0" transform="translate(634, 430)">
        <animate attributeName="opacity" from="0" to="1" dur="0.3s" begin="3.0s" fill="freeze" />
        <rect class="skill-pill-rect" x="0" y="0" width="42" height="24" rx="12" />
        <text class="skill-text" x="21" y="16" text-anchor="middle">C++</text>
      </g>
      <g class="skill-pill" opacity="0" transform="translate(684, 430)">
        <animate attributeName="opacity" from="0" to="1" dur="0.3s" begin="3.05s" fill="freeze" />
        <rect class="skill-pill-rect" x="0" y="0" width="62" height="24" rx="12" />
        <text class="skill-text" x="31" y="16" text-anchor="middle">Python</text>
      </g>
      <g class="skill-pill" opacity="0" transform="translate(754, 430)">
        <animate attributeName="opacity" from="0" to="1" dur="0.3s" begin="3.1s" fill="freeze" />
        <rect class="skill-pill-rect" x="0" y="0" width="56" height="24" rx="12" />
        <text class="skill-text" x="28" y="16" text-anchor="middle">HTML5</text>
      </g>
      <g class="skill-pill" opacity="0" transform="translate(818, 430)">
        <animate attributeName="opacity" from="0" to="1" dur="0.3s" begin="3.15s" fill="freeze" />
        <rect class="skill-pill-rect" x="0" y="0" width="49" height="24" rx="12" />
        <text class="skill-text" x="24" y="16" text-anchor="middle">CSS3</text>
      </g>
      <g class="skill-pill" opacity="0" transform="translate(875, 430)">
        <animate attributeName="opacity" from="0" to="1" dur="0.3s" begin="3.2s" fill="freeze" />
        <rect class="skill-pill-rect" x="0" y="0" width="103" height="24" rx="12" />
        <text class="skill-text" x="51" y="16" text-anchor="middle">Tailwind CSS</text>
      </g>
      <g class="skill-pill" opacity="0" transform="translate(986, 430)">
        <animate attributeName="opacity" from="0" to="1" dur="0.3s" begin="3.25s" fill="freeze" />
        <rect class="skill-pill-rect" x="0" y="0" width="83" height="24" rx="12" />
        <text class="skill-text" x="41" y="16" text-anchor="middle">Socket.IO</text>
      </g>
      <g class="skill-pill" opacity="0" transform="translate(520, 462)">
        <animate attributeName="opacity" from="0" to="1" dur="0.3s" begin="3.3s" fill="freeze" />
        <rect class="skill-pill-rect" x="0" y="0" width="76" height="24" rx="12" />
        <text class="skill-text" x="38" y="16" text-anchor="middle">JWT Auth</text>
      </g>
      <g class="skill-pill" opacity="0" transform="translate(604, 462)">
        <animate attributeName="opacity" from="0" to="1" dur="0.3s" begin="3.35s" fill="freeze" />
        <rect class="skill-pill-rect" x="0" y="0" width="83" height="24" rx="12" />
        <text class="skill-text" x="41" y="16" text-anchor="middle">REST APIs</text>
      </g>
      <g class="skill-pill" opacity="0" transform="translate(695, 462)">
        <animate attributeName="opacity" from="0" to="1" dur="0.3s" begin="3.4s" fill="freeze" />
        <rect class="skill-pill-rect" x="0" y="0" width="42" height="24" rx="12" />
        <text class="skill-text" x="21" y="16" text-anchor="middle">Git</text>
      </g>
      <g class="skill-pill" opacity="0" transform="translate(745, 462)">
        <animate attributeName="opacity" from="0" to="1" dur="0.3s" begin="3.45s" fill="freeze" />
        <rect class="skill-pill-rect" x="0" y="0" width="62" height="24" rx="12" />
        <text class="skill-text" x="31" y="16" text-anchor="middle">GitHub</text>
      </g>
      <g class="skill-pill" opacity="0" transform="translate(815, 462)">
        <animate attributeName="opacity" from="0" to="1" dur="0.3s" begin="3.5s" fill="freeze" />
        <rect class="skill-pill-rect" x="0" y="0" width="62" height="24" rx="12" />
        <text class="skill-text" x="31" y="16" text-anchor="middle">Docker</text>
      </g>
      <g class="skill-pill" opacity="0" transform="translate(885, 462)">
        <animate attributeName="opacity" from="0" to="1" dur="0.3s" begin="3.55s" fill="freeze" />
        <rect class="skill-pill-rect" x="0" y="0" width="42" height="24" rx="12" />
        <text class="skill-text" x="21" y="16" text-anchor="middle">AWS</text>
      </g>
      <g class="skill-pill" opacity="0" transform="translate(935, 462)">
        <animate attributeName="opacity" from="0" to="1" dur="0.3s" begin="3.6s" fill="freeze" />
        <rect class="skill-pill-rect" x="0" y="0" width="69" height="24" rx="12" />
        <text class="skill-text" x="34" y="16" text-anchor="middle">Postman</text>
      </g>
      <g class="skill-pill" opacity="0" transform="translate(1012, 462)">
        <animate attributeName="opacity" from="0" to="1" dur="0.3s" begin="3.65s" fill="freeze" />
        <rect class="skill-pill-rect" x="0" y="0" width="56" height="24" rx="12" />
        <text class="skill-text" x="28" y="16" text-anchor="middle">Figma</text>
      </g>
      <g class="skill-pill" opacity="0" transform="translate(520, 494)">
        <animate attributeName="opacity" from="0" to="1" dur="0.3s" begin="3.7s" fill="freeze" />
        <rect class="skill-pill-rect" x="0" y="0" width="90" height="24" rx="12" />
        <text class="skill-text" x="45" y="16" text-anchor="middle">React Flow</text>
      </g>
      <g class="skill-pill" opacity="0" transform="translate(618, 494)">
        <animate attributeName="opacity" from="0" to="1" dur="0.3s" begin="3.75s" fill="freeze" />
        <rect class="skill-pill-rect" x="0" y="0" width="90" height="24" rx="12" />
        <text class="skill-text" x="45" y="16" text-anchor="middle">Gemini API</text>
      </g>
    </g>

    <!-- SOCIAL MEDIA LINKS -->
    <g opacity="0">
      <animate attributeName="opacity" from="0" to="1" dur="0.5s" begin="4.2s" fill="freeze" />
      
      <!-- GitHub Icon -->
      <a href="https://github.com/Ankit25akofficial" target="_blank">
        <g class="social-icon" transform="translate(980, 520)">
          <path class="social-icon-path" d="M12 0c-6.626 0-12 5.373-12 12 0 5.302 3.438 9.8 8.207 11.387.599.111.793-.261.793-.577v-2.234c-3.338.726-4.033-1.416-4.033-1.416-.546-1.387-1.333-1.756-1.333-1.756-1.089-.745.083-.729.083-.729 1.205.084 1.839 1.237 1.839 1.237 1.07 1.834 2.807 1.304 3.492.997.107-.775.418-1.305.762-1.604-2.665-.305-5.467-1.334-5.467-5.931 0-1.311.469-2.381 1.236-3.221-.124-.303-.535-1.524.117-3.176 0 0 1.008-.322 3.301 1.23.957-.266 1.983-.399 3.003-.404 1.02.005 2.047.138 3.006.404 2.291-1.552 3.297-1.23 3.297-1.23.653 1.653.242 2.874.118 3.176.77.84 1.235 1.911 1.235 3.221 0 4.609-2.807 5.624-5.479 5.921.43.372.823 1.102.823 2.222v3.293c0 .319.192.694.801.576 4.765-1.589 8.199-6.086 8.199-11.386 0-6.627-5.373-12-12-12z" transform="scale(0.85)"/>
        </g>
      </a>

      <!-- LinkedIn Icon -->
      <a href="https://linkedin.com/in/ankitofficial25/" target="_blank">
        <g class="social-icon" transform="translate(1015, 520)">
          <path class="social-icon-path" d="M19 0h-14c-2.761 0-5 2.239-5 5v14c0 2.761 2.239 5 5 5h14c2.762 0 5-2.239 5-5v-14c0-2.761-2.238-5-5-5zm-11 19h-3v-11h3v11zm-1.5-12.268c-.966 0-1.75-.779-1.75-1.75s.784-1.75 1.75-1.75 1.75.779 1.75 1.75-.784 1.75-1.75 1.75zm13.5 12.268h-3v-5.604c0-3.368-4-3.113-4 0v5.604h-3v-11h3v1.765c1.396-2.586 7-2.777 7 2.476v6.759z" transform="scale(0.85)"/>
        </g>
      </a>

      <!-- Website/Portfolio Icon -->
      <a href="https://ankit-kohl.vercel.app/" target="_blank">
        <g class="social-icon" transform="translate(1050, 520)">
          <path class="social-icon-path" d="M12 0c-6.627 0-12 5.373-12 12s5.373 12 12 12 12-5.373 12-12-5.373-12-12-12zm-2 19.336c-.466-.29-.89-.636-1.261-1.033 1.05-.195 2.177-.303 3.261-.303s2.21.108 3.261.303c-.371.397-.795.743-1.261 1.033h-3.999zm1.378-4.364c-.394-.482-.718-1.026-.95-1.597.514-.078 1.038-.118 1.572-.118s1.058.04 1.572.118c-.232.571-.556 1.115-.95 1.597-.333.407-.724.768-1.157 1.077-.433-.309-.824-.67-1.239-1.077zm-.721-3.483c.189.479.444.935.753 1.348-.37.054-.749.083-1.134.083-.93 0-1.835-.164-2.696-.462.885-.453 1.954-.783 3.077-.969zm1.343-2.311c.93 0 1.835.164 2.696.462-.885.453-1.954.783-3.077.969-.189-.479-.444-.935-.753-1.348.37-.054.749-.083 1.134-.083zm-4.708.283c-.886.297-1.688.74-2.368 1.282.493-.836 1.171-1.536 1.978-2.046.126.241.258.495.39.764zm8.688 0c.132-.269.264-.523.39-.764.807.51 1.485 1.21 1.978 2.046-.68-.542-1.482-.985-2.368-1.282zm-.577-1.127c-.433.309-.824.67-1.239 1.077-.394-.482-.718-1.026-.95-1.597.514-.078 1.038-.118 1.572-.118s1.058.04 1.572.118c-.232.571-.556 1.115-.95 1.597-.333-.407-.724-.768-1.157-1.077zm-3.399-.535v-.001h3.999v.001c-.371-.397-.795-.743-1.261-1.033h-1.477c-.466.29-.89.636-1.261 1.032zm-3.261 5.303c.861-.298 1.766-.462 2.696-.462.385 0 .764.029 1.134.083-.309.413-.564.869-.753 1.348-1.123-.186-2.192-.516-3.077-.969zm10.518-1.282c-.68-.542-1.482-.985-2.368-1.282.132.269.264.523.39.764.807.51 1.485 1.21 1.978 2.046-.68-.542-1.482-.985-2.368-1.282zm-8.688 0c-.886.297-1.688.74-2.368 1.282.493-.836 1.171-1.536 1.978-2.046.126.241.258.495.39.764z" transform="scale(0.85)"/>
        </g>
      </a>

      <!-- Email Icon -->
      <a href="mailto:ankit.devf@gmail.com">
        <g class="social-icon" transform="translate(1085, 520)">
          <path class="social-icon-path" d="M0 3v10c0 1.1.9 2 2 2h16c1.1 0 2-.9 2-2V3c0-1.1-.9-2-2-2H2c-1.1 0-2 .9-2 2zm18 0v.09L10 8 2 3.09V3h16zM2 13V5.12l7.4 4.63c.36.23.84.23 1.2 0L18 5.12V13H2z" transform="translate(1,2) scale(0.95)"/>
        </g>
      </a>
    </g>
  </g>
</svg>
